HIERARCHY
ROOT hip
{
  OFFSET 0 0 0
  CHANNELS 6 Xposition Yposition Zposition Zrotation Yrotation Xrotation
  JOINT abdomen
  {
    OFFSET 0 20.6881 -0.73152
    CHANNELS 3 Zrotation Xrotation Yrotation
    JOINT chest
    {
      OFFSET 0 11.7043 -0.48768
      CHANNELS 3 Zrotation Xrotation Yrotation
      JOINT neck
      {
        OFFSET 0 22.1894 -2.19456
        CHANNELS 3 Zrotation Xrotation Yrotation
        JOINT head
        {
          OFFSET -0.24384 7.07133 1.2192
          CHANNELS 3 Zrotation Xrotation Yrotation
          JOINT leftEye
          {
            OFFSET 4.14528 8.04674 8.04672
            CHANNELS 3 Zrotation Xrotation Yrotation
            End Site
            {
              OFFSET 1 0 0
            }
          }
          JOINT rightEye
          {
            OFFSET -3.6576 8.04674 8.04672
            CHANNELS 3 Zrotation Xrotation Yrotation
            End Site
            {
              OFFSET 1 0 0
            }
          }
        }
      }
      JOINT rCollar
      {
        OFFSET -2.68224 19.2634 -4.8768
        CHANNELS 3 Zrotation Xrotation Yrotation
        JOINT rShldr
        {
          OFFSET -8.77824 -1.95073 1.46304
          CHANNELS 3 Zrotation Xrotation Yrotation
          JOINT rForeArm
          {
            OFFSET -28.1742 -1.7115 0.48768
            CHANNELS 3 Zrotation Xrotation Yrotation
            JOINT rHand
            {
              OFFSET -22.5879 0.773209 7.07136
              CHANNELS 3 Zrotation Xrotation Yrotation
              JOINT rThumb1
              {
                OFFSET -1.2192 -0.487915 3.41376
                CHANNELS 3 Zrotation Xrotation Yrotation
                JOINT rThumb2
                {
                  OFFSET -3.37035 -0.52449 3.41376
                  CHANNELS 3 Zrotation Xrotation Yrotation
                  End Site
                  {
                    OFFSET -1.78271 -1.18214 1.43049
                  }
                }
              }
              JOINT rIndex1
              {
                OFFSET -7.75947 0.938293 5.60832
                CHANNELS 3 Zrotation Xrotation Yrotation
                JOINT rIndex2
                {
                  OFFSET -2.54057 -0.884171 1.56538
                  CHANNELS 3 Zrotation Xrotation Yrotation
                  End Site
                  {
                    OFFSET -1.62519 -0.234802 1.16502
                  }
                }
              }
              JOINT rMid1
              {
                OFFSET -8.24714 1.18213 3.41376
                CHANNELS 3 Zrotation Xrotation Yrotation
                JOINT rMid2
                {
                  OFFSET -3.10165 -0.590103 1.0647
                  CHANNELS 3 Zrotation Xrotation Yrotation
                  End Site
                  {
                    OFFSET -2.48547 -0.328903 0.83742
                  }
                }
              }
              JOINT rRing1
              {
                OFFSET -8.82822 0.546677 1.51678
                CHANNELS 3 Zrotation Xrotation Yrotation
                JOINT rRing2
                {
                  OFFSET -2.60934 -0.819778 -0.0198488
                  CHANNELS 3 Zrotation Xrotation Yrotation
                  End Site
                  {
                    OFFSET -2.33842 -0.294052 0.168128
                  }
                }
              }
              JOINT rPinky1
              {
                OFFSET -8.27202 -0.0477905 -0.4584
                CHANNELS 3 Zrotation Xrotation Yrotation
                JOINT rPinky2
                {
                  OFFSET -1.82734 -0.647385 -0.700984
                  CHANNELS 3 Zrotation Xrotation Yrotation
                  End Site
                  {
                    OFFSET -1.69225 -0.51767 -0.607171
                  }
                }
              }
            }
          }
        }
      }
      JOINT lCollar
      {
        OFFSET 2.68224 19.2634 -4.8768
        CHANNELS 3 Zrotation Xrotation Yrotation
        JOINT lShldr
        {
          OFFSET 8.77824 -1.95073 1.46304
          CHANNELS 3 Zrotation Xrotation Yrotation
          JOINT lForeArm
          {
            OFFSET 28.1742 -1.7115 0.48768
            CHANNELS 3 Zrotation Xrotation Yrotation
            JOINT lHand
            {
              OFFSET 22.5879 0.773209 7.07136
              CHANNELS 3 Zrotation Xrotation Yrotation
              JOINT lThumb1
              {
                OFFSET 1.2192 -0.487915 3.41376
                CHANNELS 3 Zrotation Xrotation Yrotation
                JOINT lThumb2
                {
                  OFFSET 3.37035 -0.52449 3.41376
                  CHANNELS 3 Zrotation Xrotation Yrotation
                  End Site
                  {
                    OFFSET 1.78271 -1.18214 1.43049
                  }
                }
              }
              JOINT lIndex1
              {
                OFFSET 7.75947 0.938293 5.60832
                CHANNELS 3 Zrotation Xrotation Yrotation
                JOINT lIndex2
                {
                  OFFSET 2.54057 -0.884171 1.56538
                  CHANNELS 3 Zrotation Xrotation Yrotation
                  End Site
                  {
                    OFFSET 1.62519 -0.234802 1.16502
                  }
                }
              }
              JOINT lMid1
              {
                OFFSET 8.24714 1.18213 3.41376
                CHANNELS 3 Zrotation Xrotation Yrotation
                JOINT lMid2
                {
                  OFFSET 3.10165 -0.590103 1.0647
                  CHANNELS 3 Zrotation Xrotation Yrotation
                  End Site
                  {
                    OFFSET 2.48547 -0.328903 0.83742
                  }
                }
              }
              JOINT lRing1
              {
                OFFSET 8.82822 0.546677 1.51678
                CHANNELS 3 Zrotation Xrotation Yrotation
                JOINT lRing2
                {
                  OFFSET 2.60934 -0.819778 -0.0198488
                  CHANNELS 3 Zrotation Xrotation Yrotation
                  End Site
                  {
                    OFFSET 2.33842 -0.294052 0.168128
                  }
                }
              }
              JOINT lPinky1
              {
                OFFSET 8.27202 -0.0477905 -0.4584
                CHANNELS 3 Zrotation Xrotation Yrotation
                JOINT lPinky2
                {
                  OFFSET 1.82734 -0.647385 -0.700984
                  CHANNELS 3 Zrotation Xrotation Yrotation
                  End Site
                  {
                    OFFSET 1.69225 -0.51767 -0.607171
                  }
                }
              }
            }
          }
        }
      }
    }
  }
  JOINT rButtock
  {
    OFFSET -8.77824 4.35084 1.2192
    CHANNELS 3 Zrotation Xrotation Yrotation
    JOINT rThigh
    {
      OFFSET 0 -1.70687 -2.19456
      CHANNELS 3 Zrotation Xrotation Yrotation
      JOINT rShin
      {
        OFFSET 0 -36.8199 0.73152
        CHANNELS 3 Zrotation Xrotation Yrotation
        JOINT rFoot
        {
          OFFSET 0.73152 -45.1104 -5.12064
          CHANNELS 3 Zrotation Xrotation Yrotation
          End Site
          {
            OFFSET -1.1221 -3.69964 12.103
          }
        }
      }
    }
  }
  JOINT lButtock
  {
    OFFSET 8.77824 4.35084 1.2192
    CHANNELS 3 Zrotation Xrotation Yrotation
    JOINT lThigh
    {
      OFFSET 0 -1.70687 -2.19456
      CHANNELS 3 Zrotation Xrotation Yrotation
      JOINT lShin
      {
        OFFSET 0 -36.8199 0.73152
        CHANNELS 3 Zrotation Xrotation Yrotation
        JOINT lFoot
        {
          OFFSET -0.73152 -45.1104 -5.12064
          CHANNELS 3 Zrotation Xrotation Yrotation
          End Site
          {
            OFFSET 1.1221 -3.69964 12.103
          }
        }
      }
    }
  }
}
MOTION
Frames:	7
Frame Time:	0.00833333
194.118 81.3312 11.8388 362.062 215.524 372.27 6.82064 2.66377 4.36756 -5.31708 -18.6769 0.181233 5.71914 4.01268 5.24275 -11.6105 17.5802 6.93442 -0.0 0.0 0.0 -0.0 0.0 0.0 2.32656e-14 -1.85923e-13 8.4884e-13 91.1629 32.7789 -34.3961 -15.0429 -7.82682 27.678 -0.0781654 -8.01182 -1.13329 2.6433e-09 -2.727e-09 2.69108e-09 4.55452e-09 -4.72245e-09 4.66816e-09 2.64331e-09 -2.727e-09 2.69107e-09 7.73091 5.47488 0.417314 2.6433e-09 -2.727e-09 2.69108e-09 2.90554 0.965183 0.102902 2.64331e-09 -2.727e-09 2.69108e-09 10.2786 0.731801 0.0259123 2.6433e-09 -2.727e-09 2.69109e-09 2.22167 -0.733487 -0.20892 2.31859e-14 -1.85922e-13 8.48479e-13 -78.7583 32.8263 20.0646 16.1306 -8.80905 -29.9489 -0.000198851 0.199695 -0.0280641 9.96101e-11 -3.61746e-09 2.48165e-09 1.69752e-10 -6.26449e-09 4.29547e-09 9.96098e-11 -3.61745e-09 2.48166e-09 -7.73091 5.47488 -0.417314 9.9612e-11 -3.61745e-09 2.48165e-09 -2.90554 0.965183 -0.102902 9.96033e-11 -3.61746e-09 2.48165e-09 -10.2786 0.731801 -0.0259123 9.96152e-11 -3.61745e-09 2.48164e-09 -2.22167 -0.733487 0.20892 -2.03217e-16 0.0 -3.88251e-19 5.70466 -14.105 -0.15542 0.0274845 15.1816 0.64203 -7.79748 -22.9041 -16.9314 2.03217e-16 0.0 3.88251e-19 1.30707 -25.3422 -25.7842 0.0766215 14.5034 -0.360944 3.86737 -5.94958 17.3929
194.252 81.4755 12.1804 362.041 218.848 372.433 6.63899 2.54143 3.72654 -4.13115 -18.7648 0.179407 5.16331 4.18434 4.92576 -11.9376 16.8488 6.59237 -0.0 0.0 0.0 -0.0 0.0 0.0 4.35966e-14 -7.57379e-14 1.02121e-12 90.4648 33.65 -34.6336 -14.9665 -7.76127 27.5196 -0.0908671 -8.56687 -1.21314 3.63255e-09 -3.01879e-09 2.31221e-09 6.26505e-09 -5.22797e-09 4.01554e-09 3.63256e-09 -3.01879e-09 2.3122e-09 7.73091 5.47488 0.417314 3.63255e-09 -3.01879e-09 2.31221e-09 2.90554 0.965183 0.102902 3.63256e-09 -3.01879e-09 2.31221e-09 10.2786 0.731801 0.0259123 3.63256e-09 -3.01879e-09 2.31222e-09 2.22167 -0.733487 -0.20892 4.35237e-14 -7.57356e-14 1.02081e-12 -79.7193 32.0086 20.2499 16.1017 -8.78207 -29.8877 5.87636e-07 -0.0218849 0.00307573 -2.01341e-10 -3.47449e-09 3.23141e-09 -3.48836e-10 -6.01913e-09 5.59428e-09 -2.01343e-10 -3.47448e-09 3.23142e-09 -7.73091 5.47488 -0.417314 -2.01339e-10 -3.47449e-09 3.23141e-09 -2.90554 0.965183 -0.102902 -2.01347e-10 -3.47449e-09 3.23141e-09 -10.2786 0.731801 -0.0259123 -2.01334e-10 -3.47449e-09 3.23141e-09 -2.22167 -0.733487 0.20892 -2.03217e-16 0.0 -3.88251e-19 5.844 -13.9312 -0.391192 0.0308813 14.6601 0.65779 -8.44185 -24.2068 -17.5644 2.03217e-16 0.0 3.88251e-19 1.05087 -26.6007 -25.5449 0.0608987 13.7735 -0.392819 4.30007 -7.72694 17.2004
194.309 81.619 12.4761 362.079 221.973 372.506 6.7361 2.403 3.21806 -3.04974 -18.8069 0.201502 4.43973 4.31784 4.63383 -11.9731 16.0954 6.27319 -0.0 0.0 0.0 -0.0 0.0 0.0 7.62048e-16 8.72708e-14 7.98746e-13 89.7784 34.8154 -34.7847 -14.8625 -7.67205 27.3055 -0.0992269 -8.91532 -1.26338 3.37624e-09 -2.27239e-09 1.45191e-09 5.82664e-09 -3.93603e-09 2.5264e-09 3.37625e-09 -2.27239e-09 1.4519e-09 7.73091 5.47488 0.417314 3.37624e-09 -2.27239e-09 1.4519e-09 2.90554 0.965183 0.102902 3.37625e-09 -2.27239e-09 1.45191e-09 10.2786 0.731801 0.0259123 3.37624e-09 -2.27239e-09 1.45191e-09 2.22167 -0.733487 -0.20892 7.30415e-16 8.72752e-14 7.98372e-13 -80.5892 31.0799 20.5736 16.1093 -8.78914 -29.9038 0.000138076 -0.0609513 0.00856505 2.23476e-10 -2.3806e-09 2.37947e-09 3.85915e-10 -4.1238e-09 4.11804e-09 2.23469e-10 -2.3806e-09 2.37948e-09 -7.73091 5.47488 -0.417314 2.23477e-10 -2.38061e-09 2.37947e-09 -2.90554 0.965183 -0.102902 2.23471e-10 -2.38061e-09 2.37948e-09 -10.2786 0.731801 -0.0259123 2.23484e-10 -2.3806e-09 2.37947e-09 -2.22167 -0.733487 0.20892 -2.03217e-16 0.0 -3.88251e-19 6.26588 -13.7816 -0.502126 0.0350048 14.2015 0.675693 -9.27599 -25.5417 -18.5657 2.03217e-16 0.0 3.88251e-19 1.01802 -27.5479 -25.1233 0.0423508 12.751 -0.455779 5.30807 -10.987 17.6663
194.355 81.8023 12.7408 362.284 224.903 372.399 7.00379 2.23501 2.825 -2.01582 -18.8096 0.25126 3.60002 4.43223 4.34482 -11.8041 15.3105 5.93664 -0.0 0.0 0.0 -0.0 0.0 0.0 -8.06025e-14 2.98845e-13 3.23006e-13 89.105 36.1943 -34.892 -14.7444 -7.57116 27.0637 -0.105149 -9.16245 -1.29905 2.35539e-09 -8.33945e-10 2.03346e-10 4.06958e-09 -1.44595e-09 3.63264e-10 2.3554e-09 -8.33942e-10 2.03337e-10 7.73091 5.47488 0.417314 2.35539e-09 -8.33942e-10 2.0334e-10 2.90554 0.965183 0.102902 2.35541e-09 -8.3394e-10 2.03346e-10 10.2786 0.731801 0.0259123 2.3554e-09 -8.3394e-10 2.03352e-10 2.22167 -0.733487 -0.20892 -8.05675e-14 2.98852e-13 3.22696e-13 -81.3963 30.0701 21.0096 16.1473 -8.8248 -29.9841 9.56182e-05 0.0261057 -0.00366986 1.09302e-09 -5.9829e-10 5.16891e-10 1.88884e-09 -1.0344e-09 8.90815e-10 1.09301e-09 -5.98291e-10 5.16905e-10 -7.73091 5.47488 -0.417314 1.09302e-09 -5.98294e-10 5.16893e-10 -2.90554 0.965183 -0.102902 1.09302e-09 -5.98295e-10 5.16898e-10 -10.2786 0.731801 -0.0259123 1.09303e-09 -5.98292e-10 5.16893e-10 -2.22167 -0.733487 0.20892 -2.03217e-16 0.0 -3.88251e-19 6.88807 -13.645 -0.471363 0.0394362 13.7618 0.693477 -10.3046 -26.9228 -19.8698 2.03217e-16 0.0 3.88251e-19 1.14339 -28.2996 -24.5413 0.0183411 11.5471 -0.543337 6.89266 -15.3954 18.7007
194.425 81.882 12.9373 362.617 227.534 372.363 7.33008 2.08949 2.49799 -1.04498 -18.8223 0.31237 2.76525 4.49128 4.08053 -11.5632 14.5761 5.63215 -0.0 0.0 0.0 -0.0 0.0 0.0 -1.59188e-13 4.75793e-13 -1.4717e-13 88.3899 37.6401 -34.8913 -14.6172 -7.46337 26.8043 -0.106897 -9.24826 -1.3114 1.19979e-09 5.86989e-10 -9.41588e-10 2.07922e-09 1.0138e-09 -1.62125e-09 1.1998e-09 5.8699e-10 -9.41596e-10 7.73091 5.47488 0.417314 1.19979e-09 5.86992e-10 -9.41595e-10 2.90554 0.965183 0.102902 1.1998e-09 5.86994e-10 -9.41588e-10 10.2786 0.731801 0.0259123 1.19979e-09 5.86993e-10 -9.41581e-10 2.22167 -0.733487 -0.20892 -1.5909e-13 4.75803e-13 -1.47411e-13 -82.1157 28.9315 21.5153 16.1933 -8.86808 -30.0816 5.34401e-05 0.15861 -0.0222916 1.90282e-09 1.15969e-09 -1.29979e-09 3.28829e-09 2.01296e-09 -2.25678e-09 1.9028e-09 1.15969e-09 -1.29977e-09 -7.73091 5.47488 -0.417314 1.90282e-09 1.15969e-09 -1.29978e-09 -2.90554 0.965183 -0.102902 1.90281e-09 1.15969e-09 -1.29978e-09 -10.2786 0.731801 -0.0259123 1.90283e-09 1.15969e-09 -1.29978e-09 -2.22167 -0.733487 0.20892 -2.03217e-16 0.0 -3.88251e-19 7.65658 -13.4563 -0.193219 0.0434817 13.3139 0.698353 -11.5104 -28.6138 -21.289 2.03217e-16 0.0 3.88251e-19 1.35592 -28.9501 -23.6981 -0.0075481 10.4494 -0.636601 8.76406 -20.1285 19.8981
194.445 81.9258 13.0471 363.159 229.925 372.09 7.60368 2.01841 2.18761 -0.152598 -18.8944 0.368578 2.05584 4.45879 3.86281 -11.3784 13.9745 5.40767 -0.0 0.0 0.0 -0.0 0.0 0.0 -1.93687e-13 5.34926e-13 -3.52942e-13 87.5684 39.0057 -34.7027 -14.4862 -7.35356 26.5377 -0.102945 -9.11277 -1.29174 5.39196e-10 1.28084e-09 -1.491e-09 9.40864e-10 2.21474e-09 -2.57454e-09 5.39202e-10 1.28084e-09 -1.49101e-09 7.73091 5.47488 0.417314 5.39195e-10 1.28084e-09 -1.49101e-09 2.90554 0.965183 0.102902 5.39209e-10 1.28084e-09 -1.491e-09 10.2786 0.731801 0.0259123 5.39199e-10 1.28084e-09 -1.491e-09 2.22167 -0.733487 -0.20892 -1.93558e-13 5.34935e-13 -3.53141e-13 -82.7234 27.6177 22.0505 16.2252 -8.89816 -30.1496 8.0305e-05 0.255885 -0.0359626 2.14839e-09 2.18058e-09 -2.01402e-09 3.71262e-09 3.78217e-09 -3.49416e-09 2.14837e-09 2.18058e-09 -2.01401e-09 -7.73091 5.47488 -0.417314 2.14839e-09 2.18058e-09 -2.01402e-09 -2.90554 0.965183 -0.102902 2.14839e-09 2.18058e-09 -2.01402e-09 -10.2786 0.731801 -0.0259123 2.1484e-09 2.18058e-09 -2.01402e-09 -2.22167 -0.733487 0.20892 -2.03217e-16 0.0 -3.88251e-19 8.51385 -13.149 0.437165 0.0460395 12.8305 0.677629 -12.883 -30.8858 -22.6565 2.03217e-16 0.0 3.88251e-19 1.59121 -29.5916 -22.4909 -0.0284762 9.74527 -0.717106 10.4253 -24.43 20.7265
194.371 81.9968 13.1022 363.755 232.045 371.581 7.79054 2.07839 1.88093 0.620431 -19.0605 0.411845 1.44209 4.3331 3.70281 -11.1377 13.4719 5.28218 -0.0 0.0 0.0 -0.0 0.0 0.0 -1.57296e-13 3.99704e-13 -1.31444e-13 86.6001 40.2833 -34.2586 -14.3299 -7.2245 26.219 -0.0897239 -8.58605 -1.21567 6.45692e-10 8.15119e-10 -1.10516e-09 1.12277e-09 1.40802e-09 -1.90853e-09 6.45697e-10 8.15119e-10 -1.10517e-09 7.73091 5.47488 0.417314 6.45691e-10 8.15122e-10 -1.10517e-09 2.90554 0.965183 0.102902 6.45704e-10 8.15124e-10 -1.10516e-09 10.2786 0.731801 0.0259123 6.45693e-10 8.15123e-10 -1.10516e-09 2.22167 -0.733487 -0.20892 -1.57187e-13 3.99709e-13 -1.31642e-13 -83.1943 26.1012 22.646 16.2615 -8.93174 -30.2282 0.000134178 0.282395 -0.0396887 1.43661e-09 2.08869e-09 -9.54696e-10 2.48229e-09 3.62165e-09 -1.65836e-09 1.43659e-09 2.08869e-09 -9.54681e-10 -7.73091 5.47488 -0.417314 1.43661e-09 2.08869e-09 -9.54694e-10 -2.90554 0.965183 -0.102902 1.4366e-09 2.08869e-09 -9.54691e-10 -10.2786 0.731801 -0.0259123 1.43662e-09 2.08869e-09 -9.54693e-10 -2.22167 -0.733487 0.20892 -2.03217e-16 0.0 -3.88251e-19 9.42418 -12.6481 1.499 0.0467482 12.2107 0.624919 -14.5114 -33.9211 -24.0316 2.03217e-16 0.0 3.88251e-19 1.81297 -30.1723 -20.7673 -0.0386473 9.47155 -0.774167 11.6083 -28.6491 20.7378
